<?xml version="1.0" standalone="no"?>
<!DOCTYPE svg PUBLIC "-//W3C//DTD SVG 1.1//EN" "http://www.w3.org/Graphics/SVG/1.1/DTD/svg11.dtd">
<svg xmlns="http://www.w3.org/2000/svg" xmlns:xlink="http://www.w3.org/1999/xlink" viewBox="0 0 1920 1080" width="1920" height="1080">
  <defs>
    <style>
      .cls-1 {
        fill: none;
      }

      .cls-2 {
        clip-path: url(#clip-path);
      }

      .cls-3 {
        fill: #7eaece;
      }

      .cls-4 {
        fill: #edd6b4;
      }

      .cls-5 {
        fill: #c6bfb3;
      }

      .cls-6 {
        opacity: 0.17;
      }

      .cls-7 {
        fill: #fbb040;
      }

      .cls-8 {
        fill: #f4f2f2;
      }

      .cls-9 {
        fill: #889899;
      }

      .cls-10 {
        fill: #020005;
      }

      .cls-11 {
        fill: #d9dee2;
      }

      .cls-12 {
        fill: #920000;
      }

      .cls-13 {
        fill: #c11111;
      }

      .cls-14 {
        fill: #fae2c0;
      }

      .cls-15, .cls-16 {
        fill: #826e67;
      }

      .cls-15 {
        opacity: 0.77;
      }

      .cls-16 {
        opacity: 0.82;
      }

      .cls-17 {
        fill: #b3b3b3;
      }
    </style>
    <clipPath id="clip-path">
      <rect class="cls-1" width="1920" height="1080"/>
    </clipPath>
  </defs>
  <g id="Layer_2" data-name="Layer 2">
    <g id="Layer_1-2" data-name="Layer 1">
      <g class="cls-2">
        <rect class="cls-3" width="1920" height="1080"/>
        <ellipse class="cls-4" cx="1431.4681" cy="1236.1489" rx="1640.1702" ry="561.7021"/>
        <path class="cls-5" d="M859.19,938.4822,284.064,859.2956c-13.7638-1.8951-14.2759-21.4538-.63-24.0509L916,714.8573a12.3728,12.3728,0,0,1,3.8568-.1214l619.268,77.8762c13.94,1.753,14.4758,21.6063.65,24.0926L863.067,938.4025A12.3745,12.3745,0,0,1,859.19,938.4822Z"/>
        <g>
          <g>
            <g class="cls-6">
              <path class="cls-7" d="M102.43-242.955C23.2577-212.1026-165.4451-139.0345-196.7358-60.2941-222.4163,4.8013-113.438,52.1738-66.2043,71.7923c179.3978,68.9022,370.91,99.626,559.7283,131.5519,380.7173,60.4807,764.4415,99.5788,1149.3169,122.1339,40.886,3.1154,81.6537,5.7446,122.4351,12.0384,11.5036,1.9312,22.9774,4.0234,34.3365,8.0821a71.93,71.93,0,0,1,8.9723,3.9239,49.8814,49.8814,0,0,1,5.61,3.4265c.9586.648,2.1958,1.6416,3.278,2.5522a38.6939,38.6939,0,0,1,3.7224,3.6844c5.0153,5.6935,8.7838,14.0366,8.6071,22.1319.2537,7.7117-2.9173,15.3509-7.2574,21.0544-3.8562,5.1989-10.4982,10.19-15.3048,12.807a111.883,111.883,0,0,1-14.6723,6.824c-16.9907,6.4858-33.2719,10.3406-50.3813,14.2945-111.3525,23.3475-224.4855,35.3266-337.0145,49.2308C1149.8953,515.7,893.6879,539.6456,639.4188,576.9819c-62.7987,9.5156-126.01,19.8559-187.6219,34.1952-22.6214,5.4033-44.8426,11.1971-66.3592,19.08a187.502,187.502,0,0,0-19.3322,8.256c-4.7033,2.4791-8.684,4.5953-12.1572,7.8877-.2881.2763-.1689.2512.1708-.4035a11.6083,11.6083,0,0,0,1.1361-4.0308c.2619-2.3436-.3657-5.9006-1.4658-7.1471a8.0241,8.0241,0,0,0,.8394.9,28.3274,28.3274,0,0,0,2.2724,1.9245c7.5561,5.4367,16.9762,9.8182,25.93,13.422,28.0832,11.1626,58.81,19.1843,88.6535,26.3938,155.7531,35.527,315.11,55.4222,473.624,75.8948,502.2644,61.4561,1031.05,105.4709,1536.2752,152.2511Q2191.97,893.17,1902.8441,875.1924c-321.422-19.9874-642.5724-43.1553-962.9094-77.26C779.2064,779.9071,618.28,761.94,459.8382,727.5855c-32.7329-7.5687-64.5722-15.4864-96.4587-27.8259-13.38-5.4319-26.0984-11.0263-38.1351-19.8778-19.2738-13.8573-29.86-36.3225-17.9042-58.9585,7.645-14.1341,21.0511-22.8185,34.3658-29.8508,31.0736-15.5431,64.337-24.1278,97.4434-32.5086,126.5374-29.74,255.33-46.1524,383.8218-63.1782,286.5705-37.8,575.5224-59.6412,860.996-104.4332,23.1387-4.0749,46.0053-8.3836,68.45-14.2582,7.1916-1.9112,14.25-4.017,20.2674-6.2949a60.69,60.69,0,0,0,7.2457-3.2229c.72-.39,1.15-.7565.6148-.3084a7.6539,7.6539,0,0,0-.67.6333c-7.8207,8.0622-6.5887,23.7224,2.4228,30.3736.24.162.393.2508.4179.2746.1228.0578.0766.0418.0412.0211a18.2008,18.2008,0,0,0-2.0808-.89c-7.6579-2.68-16.0465-4.2-24.3318-5.639-38.7191-6.1533-78.33-9.0122-117.5907-12.3217-257.108-18.6073-514.3959-40.4189-769.5051-78.3686-188.4357-29.01-1048.64-140.28-1084.4938-326.9339-11.5849-63.13,69.1947-110.1281,115.99-135.5847C-34.911-195.23,33.5835-220.3393,102.43-242.955Z"/>
            </g>
            <path class="cls-7" d="M102.43-252.8723C27.581-225.0935-226.4318-135.4161-205.6381-37.9045-174.5642,99.2141,355.91,183.8317,491.043,207.9817,870.1973,271.59,1257.2106,313.28,1641.2261,336.8319c40.2468,3.182,80.5592,5.8925,120.5218,12.1465a223.2491,223.2491,0,0,1,24.2462,5.148c6.3712,1.9529,13.9274,4.2038,18.85,9.534a12.3749,12.3749,0,0,1,2.7056,4.759,11.2272,11.2272,0,0,1,.0536,6.1466c-1.5612,5.611-6.6735,9.071-11.159,11.72-11.1233,6.1083-23.3651,9.5036-35.3137,12.8584-23.5089,6.2692-47.4289,10.829-71.3069,15.1011-286.1,45.8053-575.3977,67.776-862.6067,104.976-127.3465,16.5367-255.1821,32.5118-380.4162,61.2548-23.2695,5.6242-46.4024,11.75-68.8,20.0452-12.718,4.91-53.992,20.6253-41.116,36.7175,19.5421,24.2745,98.0761,42.3058,129.99,50.1423,93.923,21.5159,189.368,35.7874,284.7854,49.2727C1325.8261,812.432,1904.081,851.97,2481.3828,895.69c-449.57-28.5169-899.0758-60.1349-1347.3836-104.7378-192.1256-19.881-384.3517-40.438-574.6961-73.9218-63.4615-12.0115-127.5242-23.5668-188.2271-46.4553a196.5425,196.5425,0,0,1-22.5132-10.446c-25.94-13.91-37.1169-34.3628-8.1817-53.8023,10.4689-6.9512,22.1211-11.8832,33.6832-16.2943,53.3588-19.258,109.3831-29.7782,164.91-40.239,380.58-66.3277,767.4618-86.7738,1148.8274-147.0127,23.6227-4.2084,47.1753-8.6818,70.3155-14.8284,11.25-3.11,22.5-6.287,32.6083-11.7177a26.8986,26.8986,0,0,0,4.0575-2.7564,6.007,6.007,0,0,0,1.6788-1.9789.4271.4271,0,0,0,.0107.2033,9.5935,9.5935,0,0,0-3.51-2.6743,55.3442,55.3442,0,0,0-10.1506-3.8113c-15.0538-4.1482-30.9867-6.2158-46.5955-8.2121-219.4763-20.7236-454.6154-32.0171-672.9876-59.0935C855.8623,270.4028-168.5512,157.542-208.9675-37.2079-230.2828-137.7058,26.9405-225.7023,102.43-252.8723Z"/>
          </g>
          <g>
            <g class="cls-6">
              <path class="cls-7" d="M77.9842-127.9886C-1.1884-97.1363-189.8911-24.0682-221.1819,54.6723-246.8623,119.7676-137.8841,167.14-90.65,186.7586c179.3978,68.9022,370.91,99.626,559.7283,131.552,380.7173,60.4806,764.4416,99.5788,1149.317,122.1338,40.886,3.1154,81.6536,5.7446,122.4351,12.0384,11.5035,1.9312,22.9774,4.0235,34.3364,8.0821a71.9432,71.9432,0,0,1,8.9724,3.9239,49.8951,49.8951,0,0,1,5.61,3.4265c.9586.648,2.1958,1.6416,3.278,2.5523a38.669,38.669,0,0,1,3.7225,3.6843c5.015,5.6935,8.784,14.0366,8.6069,22.1319.254,7.7117-2.9173,15.351-7.2572,21.0544-3.8563,5.1989-10.4982,10.19-15.3049,12.807a111.8777,111.8777,0,0,1-14.6724,6.824c-16.9907,6.4858-33.2717,10.3407-50.3812,14.2945-111.3523,23.3475-224.4858,35.3267-337.0145,49.2308-255.2764,30.1716-511.4838,54.1174-765.7529,91.4537-62.7987,9.5156-126.01,19.8559-187.6218,34.1952-22.6215,5.4032-44.8426,11.1971-66.3593,19.08A187.4686,187.4686,0,0,0,341.66,753.48c-4.7033,2.479-8.6841,4.5953-12.1573,7.8877-.2881.2763-.1689.2511.1708-.4036a11.6083,11.6083,0,0,0,1.1361-4.0308c.262-2.3436-.3657-5.9006-1.4658-7.147a8.0706,8.0706,0,0,0,.8394.9,28.3445,28.3445,0,0,0,2.2724,1.9244c7.5562,5.4368,16.9762,9.8182,25.93,13.422,28.0832,11.1626,58.81,19.1843,88.6535,26.3938,155.7531,35.527,315.11,55.4222,473.624,75.8949,502.2644,61.4561,1031.0505,105.4708,1536.2753,152.251q-289.4136-12.4359-578.5394-30.4136c-321.4222-19.9874-642.5724-43.1553-962.91-77.26-160.7283-18.025-321.6549-35.9926-480.0965-70.3466-32.7329-7.5689-64.5721-15.4865-96.4587-27.826-13.38-5.4319-26.0984-11.0263-38.1351-19.8778-19.2737-13.8571-29.86-36.3227-17.9041-58.9585,7.645-14.134,21.0511-22.8185,34.3657-29.8508,31.0736-15.5431,64.3371-24.1278,97.4435-32.5086,126.5373-29.74,255.33-46.1525,383.8217-63.1781,286.5705-37.8,575.5225-59.6413,860.9961-104.4333,23.1387-4.0749,46.0053-8.3837,68.45-14.2581,7.1916-1.9113,14.25-4.0171,20.2674-6.2949a60.7371,60.7371,0,0,0,7.2457-3.2229c.72-.39,1.1495-.7566.6147-.3084a7.6216,7.6216,0,0,0-.67.6332c-7.8207,8.0622-6.5888,23.7225,2.4228,30.3737.24.1619.393.2507.4179.2746.1228.0577.0765.0418.0411.021a18.2115,18.2115,0,0,0-2.0808-.89c-7.6579-2.68-16.0464-4.2-24.3319-5.639-38.7188-6.1532-78.33-9.0122-117.5906-12.3217-257.108-18.6073-514.3958-40.4189-769.5051-78.3685-188.4356-29.01-1048.64-140.28-1084.4937-326.934-11.585-63.13,69.1946-110.1281,115.99-135.5847C-59.357-80.2641,9.1375-105.373,77.9842-127.9886Z"/>
            </g>
            <path class="cls-7" d="M77.9842-137.906C3.135-110.1272-250.8779-20.45-230.0842,77.0618-199.01,214.18,331.4641,298.7981,466.5969,322.948c379.1543,63.6087,766.1676,105.2985,1150.1831,128.85,40.2469,3.182,80.5592,5.8926,120.5219,12.1465a223.2642,223.2642,0,0,1,24.2462,5.148c6.3712,1.953,13.9273,4.2039,18.85,9.534a12.3737,12.3737,0,0,1,2.7057,4.759,11.2282,11.2282,0,0,1,.0536,6.1466c-1.5613,5.6111-6.6735,9.071-11.1592,11.72-11.123,6.1084-23.3652,9.5036-35.3135,12.8585-23.5088,6.2691-47.429,10.8289-71.307,15.101-286.1,45.8053-575.3975,67.776-862.6066,104.976C675.4247,650.7247,547.589,666.7,422.355,695.4428c-23.2695,5.6242-46.4025,11.75-68.8,20.0452-12.718,4.91-53.992,20.6254-41.116,36.7175,19.5421,24.2745,98.0761,42.3058,129.99,50.1423,93.923,21.516,189.3679,35.7874,284.7853,49.2727,574.166,75.7779,1152.421,115.3157,1729.7228,159.0359-449.57-28.5169-899.0759-60.1349-1347.3836-104.7378-192.1257-19.881-384.3517-40.438-574.6961-73.9218C471.3955,819.9854,407.3329,808.43,346.63,785.5415a196.56,196.56,0,0,1-22.5132-10.446c-25.94-13.91-37.1169-34.3629-8.1816-53.8022,10.4688-6.9513,22.121-11.8833,33.6832-16.2944,53.3588-19.2581,109.383-29.7781,164.91-40.239,380.58-66.3277,767.4618-86.7738,1148.8274-147.0126,23.6229-4.2085,47.1754-8.6819,70.3155-14.8285,11.25-3.11,22.5-6.287,32.6084-11.7177a26.9037,26.9037,0,0,0,4.0575-2.7564,6.0087,6.0087,0,0,0,1.6787-1.9788.4289.4289,0,0,0,.0108.2033,9.5917,9.5917,0,0,0-3.51-2.6744,55.3348,55.3348,0,0,0-10.15-3.8113c-15.0539-4.1483-30.9867-6.2158-46.5956-8.2121-219.4761-20.7236-454.6154-32.0171-672.9874-59.0935C831.4163,385.3691-192.9973,272.5083-233.4136,77.7584-254.7289-22.7395,2.4944-110.736,77.9842-137.906Z"/>
          </g>
          <g>
            <g class="cls-6">
              <path class="cls-7" d="M39.0377-16.5813C-40.1348,14.2711-228.8376,87.3392-260.1284,166.08c-25.68,65.0954,83.2978,112.4679,130.5315,132.0864,179.3978,68.9022,370.91,99.6259,559.7283,131.5519,380.7174,60.4807,764.4415,99.5788,1149.317,122.1339,40.886,3.1154,81.6537,5.7446,122.435,12.0384,11.5036,1.9312,22.9774,4.0234,34.3365,8.0821a71.9368,71.9368,0,0,1,8.9724,3.9239,49.897,49.897,0,0,1,5.61,3.4264c.9586.6481,2.1958,1.6417,3.2781,2.5523a38.7053,38.7053,0,0,1,3.7224,3.6844c5.0152,5.6934,8.7839,14.0366,8.607,22.1319.2538,7.7117-2.9173,15.3509-7.2574,21.0544-3.8561,5.1988-10.4982,10.19-15.3047,12.807a111.882,111.882,0,0,1-14.6724,6.8239c-16.9907,6.4859-33.2719,10.3407-50.3813,14.2946-111.3525,23.3475-224.4855,35.3266-337.0145,49.2307-255.2763,30.1717-511.4838,54.1175-765.7529,91.4538-62.7987,9.5156-126.01,19.8559-187.6218,34.1952-22.6215,5.4032-44.8426,11.1971-66.3593,19.08a187.4248,187.4248,0,0,0-19.3321,8.2561c-4.7033,2.479-8.6841,4.5953-12.1573,7.8876-.2881.2763-.1688.2512.1708-.4035a11.61,11.61,0,0,0,1.1362-4.0308c.2619-2.3436-.3658-5.9006-1.4659-7.1471a8.0647,8.0647,0,0,0,.8394.9,28.4036,28.4036,0,0,0,2.2724,1.9244c7.5562,5.4367,16.9763,9.8182,25.93,13.422,28.0832,11.1625,58.81,19.1842,88.6535,26.3937,155.7532,35.5272,315.11,55.4223,473.624,75.8949C1383.98,1041.1847,1912.7663,1085.2,2417.9909,1131.98q-289.4131-12.4362-578.5394-30.4137c-321.4221-19.9875-642.5723-43.1554-962.9094-77.26-160.7283-18.0251-321.6549-35.9926-480.0965-70.3466-32.7329-7.5689-64.5721-15.4866-96.4587-27.826-13.38-5.4319-26.0984-11.0264-38.1351-19.8778-19.2737-13.8573-29.86-36.3225-17.9041-58.9585,7.645-14.1341,21.0511-22.8186,34.3657-29.8508,31.0736-15.5431,64.337-24.1279,97.4435-32.5086,126.5373-29.74,255.33-46.1525,383.8217-63.1782,286.5705-37.8,575.5225-59.6412,860.996-104.4332,23.1388-4.0749,46.0053-8.3837,68.45-14.2581,7.1916-1.9113,14.25-4.0171,20.2674-6.295a60.7162,60.7162,0,0,0,7.2458-3.2229c.72-.39,1.1495-.7566.6147-.3084a7.6414,7.6414,0,0,0-.67.6333c-7.8207,8.0622-6.5888,23.7223,2.4227,30.3736.24.1619.3931.2508.418.2746.1228.0578.0765.0418.0411.0211a18.2041,18.2041,0,0,0-2.0808-.89c-7.6579-2.68-16.0465-4.2-24.3318-5.639-38.719-6.1532-78.33-9.0122-117.5907-12.3216-257.108-18.6074-514.3959-40.4189-769.5051-78.3686-188.4357-29.01-1048.64-140.28-1084.4937-326.9339-11.585-63.13,69.1946-110.1281,115.99-135.5847C-98.3035,31.1432-29.809,6.0344,39.0377-16.5813Z"/>
            </g>
            <path class="cls-7" d="M39.0377-26.4987C-35.8116,1.28-289.8243,90.9576-269.0307,188.4692c31.074,137.1187,561.5482,221.7362,696.6811,245.8862,379.1543,63.6086,766.1677,105.2985,1150.1831,128.85,40.2468,3.1819,80.5593,5.8925,120.5219,12.1465a223.2422,223.2422,0,0,1,24.2463,5.148c6.3709,1.9529,13.9273,4.2038,18.85,9.5339a12.3764,12.3764,0,0,1,2.7056,4.759,11.2257,11.2257,0,0,1,.0536,6.1467c-1.5611,5.611-6.6734,9.0709-11.159,11.72-11.1232,6.1084-23.3652,9.5035-35.3135,12.8584-23.5091,6.2692-47.429,10.829-71.3071,15.1011-286.1,45.8052-575.3976,67.776-862.6066,104.9759C636.4781,762.1321,508.6425,778.1072,383.4085,806.85c-23.2695,5.6243-46.4025,11.75-68.8,20.0453-12.7181,4.91-53.9921,20.6254-41.1161,36.7175,19.5423,24.2746,98.076,42.3057,129.99,50.1422,93.923,21.5161,189.3679,35.7875,284.7853,49.2728,574.1661,75.7778,1152.4209,115.3157,1729.7227,159.0358-449.57-28.5168-899.0759-60.1348-1347.3836-104.7377-192.1256-19.881-384.3516-40.438-574.696-73.9218-63.4616-12.0115-127.5242-23.5669-188.2271-46.4553a196.5531,196.5531,0,0,1-22.5133-10.446c-25.94-13.91-37.1169-34.3627-8.1816-53.8023,10.4688-6.9513,22.1211-11.8831,33.6832-16.2943,53.3588-19.2581,109.383-29.7782,164.91-40.2391,380.58-66.3276,767.4618-86.7737,1148.8274-147.0126,23.6227-4.2085,47.1754-8.6818,70.3155-14.8284,11.25-3.11,22.5-6.287,32.6083-11.7177a26.9049,26.9049,0,0,0,4.0576-2.7564,6.0111,6.0111,0,0,0,1.6788-1.9789.428.428,0,0,0,.0106.2033,9.5937,9.5937,0,0,0-3.51-2.6744,55.35,55.35,0,0,0-10.15-3.8112c-15.0539-4.1483-30.9869-6.2158-46.5956-8.2122-219.4762-20.7235-454.6154-32.0171-672.9875-59.0934C792.47,496.7765-231.9439,383.9156-272.36,189.1658-293.6755,88.668-36.452.6713,39.0377-26.4987Z"/>
          </g>
        </g>
        <g>
          <g>
            <path class="cls-8" d="M1273.9955,687.9306c-2.8559-4.4276.16-9.6019,2.562-12.6266l-104.48-.1522c-.0677.0017-1.6871.04-4.3052.0361-16.439-.0239-36.549-1.3853-38.9966-7.7363a12.5878,12.5878,0,0,1,1.5623-11.951c-9.7639-.0411-38.7112-.2311-53.548-1.0659-8.4837-.4768-13.8552-2.37-15.9661-5.6241a5.6266,5.6266,0,0,1-.9194-2.6227c-9.7946-.2816-62.1941-1.782-67.31-1.7894a12.1211,12.1211,0,0,1-5.8646-1.2537,12.4307,12.4307,0,0,0-5.59-1.2432c-.4957-.019-.9577-.0283-1.3913-.0289a30.3946,30.3946,0,0,0-5.5557.52,47.9349,47.9349,0,0,1-8.8666.7261c-6.9449-.01-9.6017-1.0153-11.0293-1.5553a5.8241,5.8241,0,0,0-.6483-.2231c-1.0156-.1675-11.1792-.3926-17.347-.4951l-1.3615-.0225-.0884-1.3588c-.291-4.4569,5.7894-4.9405,12.2272-5.4523,3.7906-.3016,7.71-.6131,10.58-1.625,5.0931-1.7955,13.0058-2.1623,18.7467-2.154,1.5846.0023,2.9135.0332,3.8443.0636a6.6815,6.6815,0,0,1,1.8221-3.4993c2.8971-3.0136,9.0848-4.5347,18.3908-4.5212a106.2194,106.2194,0,0,1,11.5612.6928c2.508-11.521,8.8863-19.9941,18.9749-25.1975,7.6641-3.9532,17.3017-5.9492,28.6454-5.9327a102.7463,102.7463,0,0,1,14.8188,1.12c-6.992-7.5135-15.0581-20.7544-19.8152-37.0026-4.52-15.4366-7.5492-38.6953,3.6889-61.8357,15.8454-32.6257,44.317-36.1089,55.8225-36.0922,1.3049.0019,2.4152.0472,3.2947.1037-2.1271-7.2551-7.3442-30.7782,7.6306-49.1545,12.2151-14.9892,26.3055-17.2094,33.617-17.1988a32.5988,32.5988,0,0,1,4.49.3019,63.5724,63.5724,0,0,1,8.4973-17.354c6.306-9.2278,18.155-21.6465,38.793-28.4055a84.4966,84.4966,0,0,1,26.1008-4.07c16.8745.0245,31.0118,5.0707,39.8078,14.2089,7.32,7.6046,10.8,17.7325,10.3457,30.1022-.8186,22.2781-8.3242,33.71-14.4762,39.3769-6.792,6.2562-13.3926,7.0856-13.67,7.1182l-.9634.1118-.4859-.84c-1.8476-3.1925-8.0752-5.2628-15.8655-5.2741-14.21-.0206-31.0693,6.62-36.7,21.5042-4.1473,10.9638-3.5151,20.8535,1.828,28.6,5.9609,8.642,17.2225,13.8129,30.1244,13.8328.9519.0014,1.9186-.027,2.8738-.0841a66.28,66.28,0,0,0,37.3922-13.946c13.6121-10.7526,23.5228-27.3474,29.4567-49.3229,4.5426-16.8248,4.3839-34.6114,4.2159-53.4424-.2346-26.3032-.4774-53.5016,12.7838-79.0486,11.7626-22.66,31.8356-34.7616,46.603-40.9231a116.0326,116.0326,0,0,1,28.1973-7.8632c.1966-4.5315,1.75-19.0687,13.4589-24.1522a30.881,30.881,0,0,1,12.3783-2.6755,28.9889,28.9889,0,0,1,17.3266,5.8708c4.0553-5.6164,20.8539-26.3864,47.3925-26.3479l.5609.004c24.2849.2991,38.65,16.9544,50.1928,30.3373,3.328,3.8584,6.4712,7.503,9.59,10.4848,5.9774,5.7159,14.7988,9.0025,24.2023,9.0168,9.0334.0139,16.6975-3.1544,19.0709-7.884a11.7436,11.7436,0,0,0,.0416-10.8838,18.1223,18.1223,0,0,0-12.5033-9.1658c-23.523-4.2366-24.28-20.5136-22.6381-29.8387,3.48-19.7626,25.571-31.8687,39.8768-31.8479a21.7829,21.7829,0,0,1,2.2721.1176c6.2662.6687,9.9158,3.414,12.8483,5.62,2.0862,1.5692,3.7341,2.8089,5.6985,2.8121a7.2443,7.2443,0,0,0,3.1248-.8252c7.9866-3.8251,10.6816-13.8043,12.9473-24.5691,2.5866-12.2906,13.0025-18.8719,21.1365-20.7734a22.2478,22.2478,0,0,1,4.9763-.6658c5.1177.0074,5.555,2.9588,5.5878,3.2954l.1056,1.0736-.9908.4276c-14.5491,6.2721-14.7865,8.1126-15.6687,14.96a61.9962,61.9962,0,0,1-3.0656,13.5578,48.8918,48.8918,0,0,1-10.8607,18.2089c-3.67,4.2-6.8391,7.8276-8.643,16.2946-2.2244,10.4411.6109,12.7139,5.3084,16.48,4.0356,3.235,9.0583,7.2615,12.4483,17.4807,8.4208,25.3854-.8516,49.8382-25.44,67.0881-18.5289,12.9987-33.0092,14.9227-39.9917,14.9126-9.1236-.0133-15.5783-3.3028-16.8452-8.585a58.3823,58.3823,0,0,1-1.019-6.2859c-1.06-8.4129-2.1562-17.1128-15.7673-21.0937a36.2187,36.2187,0,0,0-9.8365-1.2035c-13.3382-.0194-31.5948,4.9729-42.3146,16.17a29.0976,29.0976,0,0,0-8.4884,22.1322c.9409,20.8757,26.097,23.1659,36.869,23.1816a91.3776,91.3776,0,0,0,25.645-3.6081,59.636,59.636,0,0,1,17.2661-2.572c8.695.0127,20.9541,2.059,29.9805,11.7356,8.6582,9.2813,12.3983,23.5277,11.1165,42.3433-1.9471,28.5791-12.75,46.5853-21.47,56.6581a69.1431,69.1431,0,0,1-14.3877,12.73c8.4483.7632,24.9726,3.5667,29.6557,13.8508,5.1528,11.3138,5.9677,31.6166-8.6475,39.2621-5.403,2.8268-9.9351,4.0843-14.6949,4.0774a56.2315,56.2315,0,0,1-10.8009-1.4458c-2.5576-.5043-5.4566-1.0759-8.7777-1.5338a44.8457,44.8457,0,0,0-5.9835-.37c-15.0376-.0219-41.8647,6.04-54.138,22.828-14.0014,19.1529-7.7857,44.4315,6.55,55.1393a34.9708,34.9708,0,0,0,21.3816,6.7574c12.4895.0192,27.4339-5.1409,44.4187-15.337,18.1282-10.8821,40.0944-17.3625,58.76-17.3354,17.2931.0251,31.12,5.6059,39.9848,16.1391,17.6331,20.95,8.8,38.2753,4.4492,44.4838,16.9267.8041,24.7338,10.2473,26.8586,16.0222,18.4887,3.1028,35.6935,9.6017,44.3818,13.237,5.4044,2.2609,8.1277,4.6278,8.3246,7.2359a4.5212,4.5212,0,0,1-2.1888,3.9919l-.3613.22-.4232-.0043c-.4788-.0053-48.2861-.5109-82.8437-.5612-20.2536-.0294-32.0317.0993-35.0069.3832-2.9545.2814-6.919.8773-11.51,1.5671-11.2407,1.69-26.6359,4.0038-42.19,3.9812-15.1358-.022-27.9724-5.3028-36.467-8.7971-3.7306-1.5344-6.6775-2.7469-8.2274-2.84-1.3733-.0829-6.34-.3537-12.5889-.3627-6.4147-.0094-15.5689.2627-22.7508,1.6106-9.0476,1.6982-29.749,8.4195-39.5031,11.6636,18.8178,3.7175,80.1814,15.8377,87.3953,17.2356,4.0467.7847,6.647,2.206,7.7278,4.2254a4.1316,4.1316,0,0,1,.2872,3.4254l-.387.9251-1.0028-.0183c-.5093-.009-51.3086-.92-80.9944-.9635-8.0829-.0118-13.9482.0417-17.4325.1589a133.198,133.198,0,0,0-39.2756,6.8146c-9.802,3.1347-36.2942,4.9765-70.8664,4.9263C1319.1682,696.9349,1279.0166,695.7154,1273.9955,687.9306Zm368.5829-347.8849c-11.8558-.0172-20.8044-7.2185-25.0833-11.51a25.2666,25.2666,0,0,0-6.5413-4.4216,2.8263,2.8263,0,0,1-1.5582-2.0795,2.6715,2.6715,0,0,1,.7629-2.369c1.992-1.9666,6.3589-3.9688,11.98-5.4928a100.62,100.62,0,0,1,15.7908-2.7579c1.4479-.171,2.9592-.35,4.5755-.5579,5.975-.77,13.6647-4.4627,19.8429-7.43,1.41-.6772,2.7409-1.3161,3.9553-1.8745a22.5136,22.5136,0,0,1,9.2382-2.3589c3.8427.0056,5.6077,1.61,5.7963,1.7926l1.2291,1.1924-1.36,1.0418c-.0356.0272-3.68,2.8339-14.7327,12.558-4.5436,3.9975-6.3774,8.5165-7.9952,12.5039-2.2528,5.5521-4.38,10.796-13.0379,11.6278-.9485.0911-1.9109.1367-2.861.1353ZM1459.487,186.0547l-.9925-1.0949a3.4641,3.4641,0,0,1-.5333-3.2c1.3028-5.952,12.1133-20.4034,15.7082-21.9379,2.0241-.864,6.001-1.2977,11.82-1.2893,4.2456.0062,9.3192.2541,14.6718.7175a67.32,67.32,0,0,1,9.1567,1.38,14.1512,14.1512,0,0,0,2.7358.4351,7.1538,7.1538,0,0,0,3.41-1.1333c5.4853-2.8632,8.1146-3.1135,15.92-3.8577,7.2162-.6876,19.5249-9.0551,19.6487-9.14l4.8387-3.3085-2.6921,5.2069c-.179.346-4.5338,8.5892-17.8043,18.5748-13.543,10.19-24.3833,15.1374-33.1411,15.1247a89.6271,89.6271,0,0,1-11.3242-.9154,111.8883,111.8883,0,0,0-14.7036-1.1055c-10.2787-.015-15.481,4.4275-15.6253,4.5531Zm229.2787-60.6232c-7.6645-.0112-11.5344-3.64-11.6951-3.794l-1.796-1.7237,2.373-.7513a48.2749,48.2749,0,0,0,15.1625-7.9107l.8282-.6546c4.5431-3.5983,10.1969-8.0765,17.95-8.0653,4.002.0059,6.2936.7564,7.2128,2.3616a2.89,2.89,0,0,1,.0055,2.8465l-.3191.545-.6145.1461c-5.7176,1.3583-8.9966,5.0615-12.1676,8.6428-2.8906,3.2649-5.6208,6.3486-9.8982,7.4337a28.5545,28.5545,0,0,1-7.04.9239Z"/>
            <path class="cls-9" d="M1551.2765,261.2478c18.7807,7.2968,16.3759,23.7763,24.3683,29.1214,11.8882,7.9506,40.9969-5.7252,55.9055-29.0074,5.64-8.8073,7.9632-20.6478,7.6531-26.686-5.0453,13.5237-18.8245,30.48-37.41,31.9316-21.8189,1.7036-34.7965-10.5063-41.7358-12.0037-6.49-1.4007-20.5757-1.9407-42.87,7.4975C1522.1784,260.9894,1540.66,257.1228,1551.2765,261.2478Zm78.9224,57.6273a35.7944,35.7944,0,0,0-7.6735-3.2767c-5.5812,1.5135-9.6066,3.4183-11.329,5.1186a1.2934,1.2934,0,0,0,.4,2.0669,26.61,26.61,0,0,1,6.9448,4.7085c3.3006,3.31,13.2044,12.25,26.7588,10.9471s8.945-13.87,20.1981-23.77,14.8106-12.6221,14.8106-12.6221c-3.571,3.0492-10.0441,5.9328-18.4021,12.0156-7.1878,5.2313-11.7653,15.16-19.6988,15.3968C1635.9881,329.6449,1633.22,320.6332,1630.1989,318.8751Zm-50.1749-99.3637c9.253,1.6662,18.8244,11.5968,13.52,22.1668a11.3068,11.3068,0,0,1-2.89,3.55c5.2633-3.6115,14.1421-11.419,16.39-24.107,3.2494-18.3408-12.5984-31.0075-17.0713-23.8244s-13.4032,10.8886-23.0625,4.429a15.6165,15.6165,0,0,1-6.7127-15.9565,30.1872,30.1872,0,0,0-1.6189,5.6145C1554.9127,212.2028,1570.7709,217.8452,1580.024,219.5114Zm-103.8171-40.4781c11.1562.0162,17.5989,2.0089,26.028,2.0211,4.332.0063,9.2665-1.3192,14.8144-3.93-10.1413,2.9019-17.6915-1.6594-24.1167-6.1214a42.439,42.439,0,0,0-7.4324-3.4815c-6.2662-1.81-11.32-2.6142-15.9908,1.9388-5.359,5.2244-11.5678,12.69-9.92,14.5075C1459.59,183.9674,1465.0509,179.0171,1476.2069,179.0333ZM1234.8022,492.4322c-22.4333-.838-41.8305-17.3739-31.6083-44.3961,9.6228-25.4386,49.2909-26.7031,55.2258-16.4475,0,0,10.3423-1.221,18.2054-13.115.0327-2.7022-.8749-27.7416-45.9149-25.93a40.1981,40.1981,0,0,1-20.2015,26.0841c-17.2022,9.2306-27.4483,8.5547-29.4384,13.1794C1179.129,436.3184,1173.6879,492.072,1234.8022,492.4322Zm454.704,148.4869c-3.279-18.1849-30.6326-18.9408-39.4128-18.1632-.8815.1235-1.7867.2256-2.7275.2914,0,0,3.0073-22.3079-11.3622-28.7745,0,0-14.3133,28.0072-53.9828,30.4287S1540.2861,610,1540.2861,610s-23.3217,12.3618-43.6262-4.5259c-15.2564-12.6891-12.2893-44.6634-9.8708-59.7795a42.3256,42.3256,0,0,1,8.1738-23.5218c14.242-19.4819,46.9748-25.0536,61.516-23.0493s20.155,5.9794,33.3871-.9432,13.26-25.7637,7.9876-37.3405c0,0,4.1124,13.3933-12.2585,19.3193s-45.1033-11.7174-69.4172.8909c0,0,18.6365-29.4745,48.3092-33.4809,0,0,35.7231-16.1449,39.4383-70.6806.866-12.7117-.6637-22.5225-3.7427-30.0624,1.0012,3.9508,5.7928,25.9308-6.5241,43.6-13.5808,19.4829-42.344,23.0771-42.344,23.0771s11.2633-16.8417,5.0227-44.2866a47.6125,47.6125,0,0,1-23.85,34.6732c-23.7486,13.2683-47.6094,6.8724-47.6094,6.8724s11.8743,17.5365,48.9013,13.9543c0,0-8.6308,25.1093-40.3776,34.6493s-50.557-11.9734-50.557-11.9734-5.0014,29.7423-31.4566,37.3066-40.6462-7.9922-60.8126-6.0384c0,0,37.3353,11.6237,40.2614,45.3443s-17.623,71.3734-57.3055,82.5545-73.36-15.3121-63.3937-49.6749c0,0-11.2612,15.52-40.34,8.8663s-43.2411-42.0428-43.2411-42.0428,5.9314,37.8018-32.148,58.13c-27.7878,14.8346-52.9074,13.1453-52.9074,13.1453s35.68,13.2738,40.6174,27.8253-28.2942,22.0231-80.6038,21.9471c0,0-2.7374,7.1856,15.3588,8.2036s56.7707,1.0742,56.7707,1.0742-6.4533,5.1968-3.49,12.8863,41.8875,6.7546,41.8875,6.7546l107.8423.1568s-8.2749,7.6732-4.6473,13.2979,31.7209,8.31,67.42,8.3617,61.1549-1.8944,70.4147-4.8559a134.3534,134.3534,0,0,1,39.6761-6.8839c18.8424-.6337,98.5032.8042,98.5032.8042s1.6584-3.9641-6.9335-5.63-92.8583-18.3152-92.8583-18.3152S1484.2,649.42,1496.434,647.1236s30.0826-1.6092,35.7014-1.27,22.7913,11.6026,44.6077,11.6343,43.3088-4.5649,53.5573-5.5416,118.0067.1714,118.0067.1714C1744.3336,642.3994,1689.5062,640.9191,1689.5062,640.9191Zm-450.4931-14.3186c-21.4968,4.34-42.9963-10.5069-77.775,13.8372,0,0,30.7017-53.8265,68.9938-52.2S1260.51,622.2608,1239.0131,626.6005Zm211.8359-18.6161a4.5454,4.5454,0,0,1-5.0959,1.5948c-6.4406-2.1926-25.1267-5.12-67.6158,9.6061,0,0,10.6262-33.37,42.0462-45.5551C1444.966,564.02,1472.5753,579.1393,1450.849,607.9844ZM1321.7481,462.2036a10.2281,10.2281,0,0,0,10.5578-9.9045c1.15-30.8053,22.8288-40.4031,22.8288-40.4031,36.6652,17.9032,59.4962,2.07,59.4962,2.07s-33.22-.0483-49.0494-25.8541-5.8662-57.5245-5.8662-57.5245c-12.9088,11.881-16.9029,30.7166-16.9029,30.7166s-15.0752-10.1476-17.9682-33.8468c-2.8176,13.8712-6.08,27.4331-2.8691,57.0812,2.9355,27.11-5.0442,59.1613-17.302,77.9851C1309.24,461.85,1318.4007,462.0836,1321.7481,462.2036Z"/>
          </g>
          <g>
            <path class="cls-8" d="M1905.6273,477.1025s8.4635-33.3771-16.5269-44.0543c0,0,5.404-21.73-6.6282-35.9331s-21.97-12.32-21.97-12.32,2.5416-26.6325-14.83-39.4967-32.7149-11.5642-32.7149-11.5642-1.9621-12.2427-13.9534-14.1364-15.6745,2.85-15.6745,2.85-27.4971-38.674-92.4071-24.5038-70.9055,85.5481-70.9055,85.5481-22.0084-2.3168-32.8448,18.0627a40.5628,40.5628,0,0,0-.2218,38.0934s-22.788,19.6385-12.1844,59.2811,51.2806,36.6975,51.2806,36.6975-1.6679,18.5236,18.3529,18.9854c0,0-5.1382,29.4153,28.5968,37.0973,0,0-9.6849,9.1829-3.217,29.3486,0,0-18.51-1.2834-33.2691,16.9232s-16.7709,37.8964-6.5147,45.2358,9.966,21.1989-1.1639,21.9684-17.053-3.642-27.2948.5593-8.253,17.2124-20.84,20.34c0,0-8.3978-20.3554-40.6647-7.8268-34.7229,13.4823-31.04,48.0072-31.04,48.0072s-14.6411-.6478-18.2965,16.0209c0,0-8.3614-8.1746-23.7047-6.8745S1446.68,788.81,1446.68,788.81a22.2852,22.2852,0,0,0-22.6971.0152c-12.4543,6.9707-12.3693,20.7145-25.3,28.5736-14.3178,8.7023-35.5705,9.6935-35.5705,9.6935s10.4326,5.0251,27.697,3.6587,23.04-12.3377,35.1912-5.8332,25.4807,13.7377,45.7252-1.581a36.27,36.27,0,0,0,34.9807,10.3316c22.14-4.9971,23.9541-19.294,23.9541-19.294s11.0256,18.4694,37.1411,17.1817S1603.76,814.54,1603.76,814.54s32.0672,26.2054,76.095,8.91,41.64-52.99,41.64-52.99,21.4523,8.4912,43.8307-.746,25.7811-33.2067,25.7811-33.2067,26.8054,7.5367,46.2015-10.061,16.7043-39.8175,16.7043-39.8175,23.6772-5.05,26.418-25.9193-17.2-19.0253-15.6244-29.0821,10.811-9.9913,10.9683-27.6933-5.13-25.9825-5.13-25.9825,38.16,2.1428,55.4213-32.6928S1918.0693,480.9041,1905.6273,477.1025Zm-295.0324,116.1c4.2586-2.7606,3.2325-16.4048,1.3488-18.6548s-6.3562-6.258-12.6054-5.1488c-6.4381,1.1426-10.4935,7.9478-4.81,16.247S1606.336,595.963,1610.5949,593.2023Zm-18.8774-230.7881c7.0832,1.7964,16.0163-9.9958,18.5523-16.8472,1.5361-4.1505,4.5814-10.5455,2.8158-18.6211-2.1826-9.9817-16.0876-15.078-24.5163-1.4282S1584.634,360.6178,1591.7175,362.4142Zm32.951-47.7415c4.2282,1.3385,11.0308-6.2491,11.7384-12.012s-5.9939-9.4138-12.1244-3.2523C1621.0109,302.6968,1620.44,313.3343,1624.6685,314.6727Z"/>
            <path class="cls-9" d="M1870.6436,577.9511s.1123.1769.303.5338C1870.7559,578.128,1870.6436,577.9511,1870.6436,577.9511Zm-181.7755,2.1442a1.9662,1.9662,0,0,0,.3335-3.369c-5.9484-4.389-19.4653-15.2887-23.0111-26.0735a30.0985,30.0985,0,0,1,2.2327-24.4416c-8.1-4.3364-6.0963-13.1258-6.0963-13.1258a33.171,33.171,0,0,1-20.3454-24.6872c-4.0031-19.3532,8.0351-34.6447,8.0351-34.6447-48.4047,16.8056-63.0665-14.1053-63.0665-14.1053s-22.788,19.6386-12.1844,59.2812,51.2808,36.6974,51.2808,36.6974-1.6678,18.5237,18.3528,18.9854c0,0-5.1382,29.4155,28.5965,37.0973C1677.3692,586.0218,1684.6921,582.0388,1688.8681,580.0953ZM1610.27,345.567c1.536-4.1506,4.5814-10.5456,2.8159-18.6211a12.3672,12.3672,0,0,0-.9174-2.6041c.3444,8.3962-8.9924,22.3244-19.1406,20.6662-7.8943-1.29-8-8.6692-7.4827-12.57-3.8943,12.999.2027,28.4624,6.1724,29.9764C1598.8007,364.2106,1607.7337,352.4184,1610.27,345.567Zm.8911,228.1158a6.9007,6.9007,0,0,1,.132,3.9392c-.9867,2.9938-6.0832,7.1077-13.0023,3.1987-5.31-3-5.4417-6.0638-5.2165-7.33-1.8489,2.9966-1.8591,7.3167,1.4542,12.1547,5.6839,8.3,11.8076,10.3172,16.0667,7.5567s3.2324-16.4047,1.3487-18.6549C1611.7205,574.2812,1611.4554,573.987,1611.1609,573.6828Zm-198.6563,250.355.0209.01c.21-.0738.4195-.1359.6292-.204C1412.748,823.968,1412.5046,824.0378,1412.5046,824.0378Zm183.0689-1.473c-1.0736.7675-2.2617,1.5405-3.57,2.2945C1593.3118,824.1055,1594.5,823.3323,1595.5735,822.5648Zm-62.5791-5.0891c-.203-.2366-.39-.4615-.5663-.678C1532.604,817.0137,1532.792,817.24,1532.9944,817.4757Zm374.7641-339.5183.0264.0327c.3814.1845.7595.3613,1.1536.5808C1908.5386,478.3481,1908.1439,478.1416,1907.7585,477.9574ZM1414.1642,823.5242A14.797,14.797,0,0,1,1426,824.9174c12.1507,6.5048,25.48,13.7379,45.7253-1.5809a36.2692,36.2692,0,0,0,34.98,10.3316c22.14-4.9973,23.954-19.2941,23.954-19.2941a23.4671,23.4671,0,0,0,1.6948,2.3309c5.829,3.2213,15.7562,6.3274,25.8629,7.31a213.4146,213.4146,0,0,0,47.4487-.474s36.9168,13.912,68.9163,1.1706c43.9474-17.499,35.2911-63.9,35.2911-63.9s26.2112,6.3487,48.5894-2.8886a32.78,32.78,0,0,0,21.0224-31.064s29.8344,5.86,49.23-11.7383,13.6756-38.14,13.6756-38.14,20.21,2.1629,22.9508-18.7057-15.5914-14.7792-14.0158-24.8359,12.67-21.4511,12.8267-39.1531-5.13-25.9827-5.13-25.9827,38.4073,2.2646,55.4213-32.6926c16.7136-34.34-18.3835-54.2384-19.0628-54.4461,0,0,11.126-23.5929-10.648-39.6956a35.397,35.397,0,0,1-11.9712,27.679,44.58,44.58,0,0,1-33.7618,11.4124s6.6986,10.1555,1.75,17.2514-15.3559,6.4939-15.3559,6.4939,3.3734,14.1173-7.57,31.4228c-7.49,11.846-22.13,17.63-30.6223,20.1a3.2066,3.2066,0,0,0-1.2773,5.463c5.7922,5.2538,14.3416,16.266,14.5879,35.6263.4184,32.8724-27.5562,37.5-27.5562,37.5s6.0837,25.757-15.4264,37.85-44.0758-.7842-44.0758-.7842c-2.7488,3.9422-7.8764,5.8506-7.8764,5.8506s1.2071,12.6536-10.7436,23.069-29.2281,11.3977-29.2281,11.3977,1.2533,13.9986-4.2711,21.1141-17.8,8.1171-17.8,8.1171,4.8063,38.8816-27.43,46.7286c-24.2841,5.9111-40.4606-3.0852-46.9632-7.8831a3.7479,3.7479,0,0,0-5.3119.8c-3.1828,4.5354-10.1036,11.785-21.4539,10.9785-16.39-1.1643-24.9572-15.2945-26.6334-13.6975s3.4266,15.6543-5.92,23.48-18.3643,2.9428-23.0082,2.1416-4.9216,7.8644-20.6294,9.754a72.5239,72.5239,0,0,1-18.3908-.2047,29.5035,29.5035,0,0,0-18.8614,3.9152A79.1424,79.1424,0,0,1,1414.1642,823.5242Zm118.2639-6.7265c-.0261-.0325-.0479-.06-.0737-.0928l-.0065-.0034C1532.3722,816.7317,1532.4032,816.767,1532.4281,816.7977Z"/>
          </g>
          <g>
            <g>
              <g>
                <path class="cls-10" d="M330.075,595.935c40.2407,1.81,70.2589,61.1637,67.0477,132.571a212.0628,212.0628,0,0,1-11.6818,61.5525l-2.7046,67.3566-64.29-2.8911C223.52,851.0046,235.2465,590.8988,330.075,595.935Z"/>
                <path class="cls-11" d="M315.6886,724.844c-5.7665,170.2573,136.1949,176.6285,145.7242,6.5493C467.1793,561.14,325.2179,554.7687,315.6886,724.844Z"/>
                <path class="cls-10" d="M337.4006,730.115c-3.58,108.1814,92.2243,112.4809,98.3619,4.4208C439.3428,626.357,343.5382,622.0575,337.4006,730.115Z"/>
              </g>
              <path class="cls-12" d="M1025.5457,442.8973s73.3186,40.8755,88.331,65.1714l-53.6714-.2663c-15.0276-24.8822-89.5943-15.5238-102.5278-12.1238l-91.0284-5.17-64.6435,4.9666c68.61,6.562,233.0948,27.866,299.6027,46.6422.0008-.0046,347.7079,3.5828,347.7079,3.5828-23.2318-18.0509-184.628-46.6821-218.5991-33.4462-17.48,6.7247-52.3575-5.58-60.9777-4.8944-10.7836.9184-29.1678.4492-34.4808,2.7441C1136.0363,513.6788,1014.8942,361.1143,1025.5457,442.8973Z"/>
              <path class="cls-11" d="M1643.538,739.1a.0121.0121,0,0,1,.0125-.0124c.3987-.1115,7.39-2.2438,15.0913-4.8982,6.418-2.22,13.3473-4.7887,17.2865-6.8631,2.9917-1.5776,5.5756-5.3978,7.6629-10.265,4.0619-9.4483,6.2238-22.8478,5.6632-31.3685-.3047-4.6092-4.3745-6.8447-9.4677-7.7988a48.8648,48.8648,0,0,0-10.9729-.5516,86.9328,86.9328,0,0,0-10.7389,1.2176c-.9726.7584-1.9328,1.4919-2.868,2.1881C1619.12,707.8745,1604.27,700.9772,1643.538,739.1Z"/>
              <path class="cls-10" d="M1563.9855,757.3593l-11.2488,3.4309c-10.0964-25.7079-14.5207-27.2581,15.0821-32.9634,0,0,2.3037-3.4753,4.595,1.28s5.0524,7.0271,4.1292,11.6381S1563.9855,757.3593,1563.9855,757.3593Z"/>
              <path class="cls-10" d="M1075.27,841.317l-109.285-10.4022L949.609,717.5625s137.6926,4.76,139.4048,9.1321,10.7012,16.7056,11.3375,34.39C1098.2368,795.1258,1089.3921,820.9013,1075.27,841.317Z"/>
              <g>
                <path class="cls-10" d="M870.0758,661.0183c40.2407,1.81,70.2589,61.1637,67.0477,132.571a212.0621,212.0621,0,0,1-11.6818,61.5524l-2.7046,67.3567-64.29-2.8911C763.5205,916.0879,775.2473,655.982,870.0758,661.0183Z"/>
                <path class="cls-11" d="M855.6894,789.9272c-5.7665,170.2573,136.1949,176.6286,145.7242,6.5493C1007.18,626.2232,865.2187,619.8519,855.6894,789.9272Z"/>
                <path class="cls-10" d="M877.4014,795.1983c-3.58,108.1814,92.2243,112.4809,98.3619,4.4208C979.3436,691.44,883.539,687.1408,877.4014,795.1983Z"/>
                <path class="cls-11" d="M909.4759,796.6407c-1.2453,37.6283,32.078,39.1238,34.2129,1.5377C944.9341,760.5509,911.6108,759.0555,909.4759,796.6407Z"/>
              </g>
              <g>
                <path class="cls-10" d="M1469.6459,665.3341c26.0059,1.1694,45.4055,39.5275,43.33,85.6752a137.0493,137.0493,0,0,1-7.55,39.7788l-1.7479,43.53-41.548-1.8685C1400.7835,830.1751,1408.3621,662.0793,1469.6459,665.3341Z"/>
                <path class="cls-11" d="M1460.3486,748.6426c-3.7267,110.03,88.0171,114.1479,94.1755,4.2326C1558.2508,642.8474,1466.507,638.73,1460.3486,748.6426Z"/>
                <path class="cls-10" d="M1474.38,752.0491c-2.3138,69.9132,59.6008,72.6918,63.5673,2.857C1540.2612,684.9945,1478.3466,682.216,1474.38,752.0491Z"/>
                <path class="cls-11" d="M1495.1086,752.9813c-.8048,24.3176,20.7307,25.2841,22.11.9937C1518.0237,729.6579,1496.4882,728.6915,1495.1086,752.9813Z"/>
              </g>
              <path class="cls-12" d="M690.5389,491.18l30.0019,1.3492,11.931-98.2389c-19.53-37.6437,290.9817-14.5862,331.1469-2.0637,23.89,4.6292,39.0094,9.6358,45.1462,14.687,16.5629,13.6314,37.321,125.1523,67.9523,136.1924l18.32-1.3255-50.8986-132.23-2.9375-7.6173c59.0789-1.9056,261.1586.8641,308.1117,143.7684l14.0778-2.5909c-13.4351-43.8937-109.28-158.4977-205.1759-164.8971-177.0382-24.3307-463.1468-37.3311-497.9318-33.6337-23.9644,3.3088-55.8291,7.49-62.4918,33.1135C690.6945,416.0265,690.5389,491.18,690.5389,491.18Z"/>
              <path class="cls-12" d="M1284.1638,414.0859,1307.83,540.4114s13.54,1.3247,13.5884.2532-25.468-126.0487-25.468-126.0487Z"/>
              <polygon class="cls-12" points="1360.726 435.901 1362.9 546.705 1377.728 545.941 1370.25 436.329 1360.726 435.901"/>
              <polygon class="cls-12" points="1178.231 398.108 1201.225 544.684 1196.008 543.972 1167.861 395.256 1178.231 398.108"/>
              <path class="cls-12" d="M732.473,394.2868c1.8069,3.1822,26.7875,1.2046,26.7875,1.2046l-34.0137,95.8163,12.81,1.65L773.72,384.3313s102.0335-.78,122.789,15.1849l-23.2184,94.5123,15.3582.6906,28.17-93.2159s70.0927,17.11,75.9916,29.1854l-35.1325,64.9875,65.3134,4.0108s17.3025-74.3787,45.3543-77.4119,177.4873-20.6495,304.0172,20.1137c0,0-172.2411-74.79-215.1537-62.2852-12.357,3.6009-151.8426-14.0069-233.3462-15.866-52.6482.8575-183.3206-8.9049-200.504,17.8291C723.36,382.0666,730.6662,391.1046,732.473,394.2868Z"/>
              <path class="cls-10" d="M749.5241,496.1575l8.2553.3712c5.5363-88.1918,131.3189-82.4761,128.8968,5.7965l8.2554.3712C897.6261,403.5025,755.7154,397.1873,749.5241,496.1575Z"/>
              <path class="cls-10" d="M770.3352,496.9165l8.2554.3713c3.7831-60.2791,89.66-56.3777,88.0043,3.9575l8.2553.3713C876.7852,430.3792,774.782,425.8406,770.3352,496.9165Z"/>
              <path class="cls-13" d="M1685.1429,554.1582c-132.156-10.1171-441.5275-14.7684-576.9512-15.2055.0017-.0032-348.4074-67.5652-479.7333-44.124,0,0-168.8,13.1666-176.9148,18.528,0,0-259.9213-13.8361-299.3871,20.1781,0,0-11.6986,13.4316,15.8345,45.8061s34.7078,63.8336,34.7078,63.8336l-26.0533,6.3441s64.0973,7.1771,85.7429,51.0972L417.1052,737.994,699.853,753.5723c30.7632-53.5775,124.5089-25.9042,133.3311,27.4693l235.4183-30.2126s17.5156,64.1341,6.6675,90.488l383.7559-57.8993,33.7351-33.914,77.8227-11.5316s-3.9855,16.9994-14.9414,21.8751l87.9-20.7415C1649.5705,730.6263,1709.7319,587.8427,1685.1429,554.1582Z"/>
              <path class="cls-12" d="M720.0273,655.229s-13.5652-59.3052-5.6246-66.1063c24.6531-10.9579,57.1521,24.0672,76.3319,53.529,10.5109,19.4233,32.3144,59.51,42.7444,78.7576l11.8666,1.4868c-21.6822-61.0013-53.745-128.2-125.7919-142.13,0,0,188.1285-29.2371,398.401-30.7614,0,0-397.7262-2.7377-418.94,39.2574C699.0147,589.2624,688.4645,614.1968,720.0273,655.229Z"/>
              <path class="cls-12" d="M170.2481,582.3045l23.1663,35.3189c-2.0449-3.5682-64.4765-112.9076-4.7875-72.6662,34.0227,19.8168,74.8868,69.5959,76.5508,80.2668,94.2715,15.4569,360.226,38.1411,458.8777,46.409l-4.5576-12.7365C618.32,646.0928,363.9227,614.3423,265.457,608.4157c-2.854-5.4412-80.5582-100.324-108.1022-79.1791C157.3556,529.2345,133.5078,539.6189,170.2481,582.3045Z"/>
              <path class="cls-12" d="M651.6845,561.9634s-3.2529-12.5531-32.7573-14.3571-99.7926-9.26-99.7926-9.26-17.968-3.6712-18.5248,8.7106Z"/>
              <path class="cls-12" d="M491.5351,536.6284a13.1211,13.1211,0,0,1,2.45,9.1768c-2.3811-.1071-79.4007-6.4338-79.4007-6.4338s.8189-7.5982,9.3909-7.2127S491.5351,536.6284,491.5351,536.6284Z"/>
              <path class="cls-12" d="M400.93,524.68s-100.0237,27.712-125.0026,73.83C275.9273,598.51,299.3735,538.7236,400.93,524.68Z"/>
              <path class="cls-12" d="M911.4708,520.44,658.2821,563.811s-2.8971-15.1617-13.1907-17.0561Z"/>
              <g>
                <path class="cls-12" d="M403.1837,686.7863c2.4536-19.9505-5.2749-30.8268-9.7157-35.3051l15.8657,2.552c23.3355,27.7955,12.36,62.18,6.4632,75.8489l-25.8092-6.0508C392.3513,721.0394,400.3149,710.1123,403.1837,686.7863Z"/>
                <path class="cls-12" d="M433.172,657.8433l40.3868,3.1638c24.0172,22.8723,4.6671,61.5059-1.4605,72.2423l-37.21-2.1142C449.104,702.5218,436.7691,666.9412,433.172,657.8433Z"/>
                <path class="cls-12" d="M499.71,699.7164c3.15-25.6114-10.4787-36.2722-12.3894-37.6313l41.0648,3.2169c26.65,17.6128,14.3992,56.0485,5.732,71.4714l-45.6692-2.5949C491.7808,729.2508,497.3983,718.5085,499.71,699.7164Z"/>
                <path class="cls-12" d="M559.2292,707.8806c1.8122-33.4685-11.2273-34.9925-17.2867-41.5165l47.7182,3.7381c24.2276,19.5134,10.4317,55.4821,2.6853,69.98l-41.6419-2.3661C553.822,731.7477,557.4763,722.1327,559.2292,707.8806Z"/>
                <path class="cls-12" d="M678.0468,713.2239c2.8956-23.5446-8.3866-34.4512-11.712-37.1152l52.5637,4.1177c10.8481,29.3576-.1516,67.0378-.1516,67.0378l-49.9615-2.8388C672.043,738.6045,676.154,728.6141,678.0468,713.2239Z"/>
                <path class="cls-12" d="M617.8046,710.5148c2.7481-30.1922-12.1051-36.6158-14.5723-39.3494l49.1954,3.8539c21.244,20.99,7.025,54.7282-.2007,68.4652l-43.304-2.4606C612.1141,735.1166,615.9846,725.3134,617.8046,710.5148Z"/>
                <path class="cls-12" d="M282.5179,664.1813c1.6676-12.7123-5.3031-26.0839-9.9267-32.1426l15.9757,2.57c19.3556,19.8963,7.8327,50.7574.4684,65.5548l-18.9323-4.4385C274.1689,688.762,281.0094,675.6788,282.5179,664.1813Z"/>
                <path class="cls-12" d="M313.6486,672.2618c2.4268-19.7311-5.108-30.59-9.57-35.1585l11.5388,1.8561c19.8679,20.8433,6.3774,53.4584-.8094,67.2462l-10.57-2.4781C307.5184,697.9473,311.7268,687.8889,313.6486,672.2618Z"/>
                <path class="cls-12" d="M340.4267,676.3291c2.3791-19.3441-4.813-30.1534-9.3009-34.8753l16.3511,2.63c20.8292,22.0382,4.6071,57.115-2.08,69.2932l-15.5414-3.6436C333.2272,704.4039,338.2684,693.88,340.4267,676.3291Z"/>
                <path class="cls-12" d="M372.1732,681.3357c2.3592-19.1831-4.6948-29.9742-9.1891-34.7577l14.9779,2.4093c22.6643,23.0555,3.5195,61.0111-2.4559,71.4488l-15.3286-3.5938C363.3492,712.4948,369.6815,701.5947,372.1732,681.3357Z"/>
              </g>
              <path class="cls-12" d="M212.9577,640.5341s34.0046-2.7655,44.7272,13.4639c0,0-12.8794-.102-8.9146,7.2341S260.21,682.7427,260.21,682.7427s-43.0038-30.5651-60.0408-33.7171Z"/>
              <path class="cls-12" d="M809.2847,675.821c-10.6864,14.114-27.4151,23.5461-48.5311,20.7225l15.23,3.548-37.8039,12.9734s55.1361,7.49,68.2266,18.8153c0,0-3.76-19.853,4.2264-22.357s-18.3639-5.4783-18.3639-5.4783l24.1994-12.87Z"/>
              <path class="cls-14" d="M728.5973,639.6255C725.16,683.796,779.72,712.763,814.4327,686.3223c-12.7327-26.5888-42.2913-76.5281-63.474-88.2386A54.2458,54.2458,0,0,0,728.5973,639.6255Z"/>
              <path class="cls-14" d="M190.8516,590.8659c-3.0805,38.1529,47.8667,59.316,72.9284,31.361-4.3153-8.5671-19.3746-34.4382-56.0611-63.3564A42.3751,42.3751,0,0,0,190.8516,590.8659Z"/>
              <path class="cls-11" d="M128.5187,708.91c3.2475,11.0532,51.0318,51.8039,114.1214,51.8956q5.6985.0082,11.56-.444a144.53,144.53,0,0,0,17.417-2.4285c11.74,3.841,28.3116,9.2212,46.8374,15.24,8.6653,2.8151,17.7539,5.768,26.9794,8.7584,13.2845,4.3042,26.8426,8.7083,39.8157,12.9248,8.5532,2.7653,16.8449,5.4554,24.6263,7.9828,12.1264,3.9537,23.02,7.4947,31.7353,10.36.8591.2753,1.6933.55,2.5025.8133,23.2554.0462,68.167,3.2629,120.5766,7.0384,10.0759.7247,20.4382,1.4747,30.9748,2.2249,68.2022,4.8324,143.8156,9.7628,199.4815,9.744,25.9211-.0121,47.5337-1.0893,62.0365-3.7588q4.1863-.76,7.5508-1.708a43.3327,43.3327,0,0,0,13.9839-5.6969c23.6882-15.0125,23.9122-49.1416,23.9122-49.1416L879.6944,775.47l-23.11,2.769L833.3624,781.02l-.1744.0246-.0125,0c0-.05-.0123-.1-.0122-.1494-1.8869-21.6015-15.2054-36.63-32.2691-45.8726-27.0581-14.6378-63.5543-14.6784-78.9292-3.1914-.3865.2735-.7606.5719-1.1223.87-.1247.112-.2494.2114-.3742.3234a63.2869,63.2869,0,0,0-14.8422,13.4931,80.2953,80.2953,0,0,0-5.1423,7.0427c-.1493,0-.3486-.013-.61-.0258-1.8308-.09-6.34-.3206-12.9282-.6789l-2.8772-.1537-.5978-.0382-3.0888-.1665c-4.1351-.23-8.8182-.4861-13.962-.7676-1.47-.0769-2.9645-.1662-4.5089-.2432-6.1527-.3453-12.8784-.7163-20.0276-1.1128-4.4713-.2431-9.117-.5115-13.8874-.7676l-5.8039-.32c-8.47-.4732-17.3-.9718-26.3673-1.4707-9.578-.5371-19.3924-1.087-29.257-1.6369-38.2493-2.1233-77.2211-4.285-105.7928-5.8587-9.8269-.5374-18.4211-1.0107-25.3211-1.3819-10.9852-.6015-17.6987-.9475-18.309-.9484l-.05,0c-2.6522-.6391-5.5162-1.3408-8.5792-2.08l-3.748-.9022c-2.5277-.6141-5.18-1.2531-7.9067-1.93-14.4813-3.4962-31.49-7.6314-48.5117-11.7542-3.3245-.802-6.6492-1.604-9.9488-2.4185-7.4586-1.8045-14.8174-3.5839-21.8775-5.3007-14.2074-3.4335-27.1694-6.5788-37.1307-8.9973l-17.0092-3.9857s-.0869-.1746-.2609-.5112a66.1793,66.1793,0,0,0-5.8291-8.7276,104.823,104.823,0,0,0-35.9682-28.95c-.05-.0249-.1-.05-.162-.075a132.843,132.843,0,0,0-40.0031-12.34c-.4858-.0879-.9714-.1634-1.4573-.2139-.3113-.0627-.6226-.1005-.934-.1383-.2365-.0378-.473-.063-.71-.1007-.1371-.0127-.2741-.0378-.4111-.05,0,0-19.3061-.5014-18.5422,22.4312C158.1057,671.9457,124.8,696.2115,128.5187,708.91Z"/>
              <path class="cls-13" d="M793.8125,343.3628c19.7506,11.2029,461.787-9.0776,575.1028,82.2539-64.09-13.1493-181.642-33.0732-255.1392-20.2846-35.664-10.9146-205.6218-60.4514-353.492-60.7484A252.5608,252.5608,0,0,1,793.8125,343.3628Z"/>
              <path class="cls-12" d="M1365.4982,547.3l-1.1141,247.6093S1383.9238,646.9055,1365.4982,547.3Z"/>
              <path class="cls-12" d="M1285.1944,598.0874l64.29,2.8911c1.7215-9.66-4.2267-19.6156-14.59-19.9819C1318.144,582.2041,1284.1609,569.9959,1285.1944,598.0874Z"/>
              <polygon class="cls-12" points="1675.896 568.774 1466.075 555.043 1678.484 582.848 1675.896 568.774"/>
            </g>
            <g>
              <path class="cls-15" d="M1114.11,415.2771l46.0835,121.25-53.72.8052s-303.7235-50.5211-386.8432-48.5327l9.5408-97.8678a18.2739,18.2739,0,0,1,13.8838-16.027C771.8013,368.03,860.209,361.6712,1114.11,415.2771Z"/>
              <path class="cls-16" d="M1447.3683,541.21s-8.1857-40.81-78.0366-95.129c2.468.8268-28.3523-14.159-28.3523-14.159s-65.4013-17.9725-161.672-18.0071l-33.67.6332,46.6854,123.7818Z"/>
            </g>
          </g>
          <g>
            <path class="cls-8" d="M905.9447,929.5573c18.324-3.1946,30.1766-4.4591,43.9008-5.9231,12.8042-1.3662,27.317-2.9149,50.0447-6.3888a602.3159,602.3159,0,0,1,84.8712-6.6021,11.4186,11.4186,0,0,0,1.33,8.2636c1.9309,2.9709,5.6132,4.7257,10.9448,5.2147a55.5355,55.5355,0,0,0,13.1014-.6863c16.476-2.519,72.9415-10.225,89.4576-12.4729a5.9386,5.9386,0,0,0-1.3361,5.4052,3.8064,3.8064,0,0,0,3.3638,2.899l.0007,0a4.5279,4.5279,0,0,0,1.0064-.024c25.7415-3.4,112.04-15.0473,141.7659-22.1492,31.5882-7.5474,37.4136-21.6886,38.444-25.6991,4.8231-1.3831,28.8641-9.0717,61.6086-33.0183,10.6689-7.8026,24.3419-20.7018,28.8949-37.8469a37.99,37.99,0,0,0,.9557-16.8973c6.4532-8.6869,24.3689-41.2419,12.28-52.1079a18.1042,18.1042,0,0,0-10.6432-4.7089c-8.1118-.7439-15.0794,3.773-15.372,3.9656l-4.9672,3.27,5.7817-.52a8.8633,8.8633,0,0,1,1.5932-.006c4.3638.4,5.7288,4.3726,6.1052,7.6346,1.2094,10.4742-5.9193,26.0791-16.9221,30.5011-4.7363,1.9033-8.7682,2.7187-11.9837,2.423-6.008-.5509-9.2477-4.9406-9.9046-13.4185-.4085-5.273-4.4762-9.0291-10.3622-9.5689-7.6242-.6993-16.6293,4.008-24.7063,12.9144-14.5019,15.9915-13.9861,28.24-13.4711,31.675-3.9261,3.5676-11.9354,6.9627-17.9884,6.4075a9.3315,9.3315,0,0,1-3.2751-.8518A47.4468,47.4468,0,0,0,1348.67,797.64c8.19-5.4271,26.9085-19.0356,23.9387-28.2736-1.0612-3.3-4.1345-5.2063-9.1341-5.6649a40.4207,40.4207,0,0,0-9.0644.3946,378.6882,378.6882,0,0,0,48.67-29.7366c33.6995-23.9075,35.2424-39.6693,34.979-43.7409,16.1069-13.7885,28.7217-28.7334,37.5-44.429,7.293-13.04,11.6412-26.41,12.2436-37.6452.4639-8.6563-1.2835-15.49-4.92-19.2435a17.4558,17.4558,0,0,0-11.318-5.1035c-6.2348-.5718-12.7613,1.2759-17.2382,2.98,3.3506-5.0667,6.8543-13.5911,2.3782-23.6214-2.6092-5.8477-7.6881-9.2775-14.6874-9.9194a38.37,38.37,0,0,0-14.0656,1.7209,11.95,11.95,0,0,0-1.5551-4.3533c-1.7222-2.8807-5.5944-6.4812-14.2606-7.2759a49.3306,49.3306,0,0,0-8.8624.0773c-23.4963,2.1281-45.3234,24.5818-48.524,28.0037-25.4278,2.7949-43.1286,19.0339-53.5251,32.214-12.8875,16.3386-19.67,34.29-20.675,44.8332-1.0815,11.348,3.5954,13.486,6.4794,13.75,7.2272.6628,17.662-8.3191,24.4015-16.2121,7.6453-8.9536,26.6431-17.5487,42.7383-16.0727,6.15.5641,14.3458,2.9467,18.4669,11.0938,4.8843,9.6562,4.0969,20.74-2.3407,32.9436a73.1114,73.1114,0,0,1-10.5491,14.8541,16.3052,16.3052,0,0,0-8.7137-3.709c-5.2464-.4812-10.3688,1.8895-15.2247,7.0461-3.7152,3.9447-8.4134,10.34-13.8535,17.745-13.4734,18.3406-31.9263,43.4594-53.4618,56.4812-12.031,7.2751-19.4789,8.3505-23.6084,7.9711-3.6971-.3391-6.3724-2.0021-7.7371-4.808-2.1539-4.43-1.1071-11.276,2.8723-18.7845,10.2019-19.2513,28.46-17.8087,29.2323-17.7379l1.3338.1224.2033-1.4183a21.9569,21.9569,0,0,0-4.2782-15.8031,25.0891,25.0891,0,0,0-18.2425-9.7953c-9.6947-.889-25.8809,2.2782-47.9355,22.4169-18.3189,16.7277-27.68,32.1035-32.3068,42.0573-5.6135,12.076-7.5972,23.2671-5.442,30.7045,1.3751,4.7447,4.3655,7.5631,8.42,7.9349a11.5052,11.5052,0,0,0,3.483-.2459,106.9019,106.9019,0,0,0,11.698-3.6672c7.1577-2.52,15.27-5.3778,20.451-4.9027a5.4453,5.4453,0,0,1,4.2653,2.0508c1.1251,1.61,1.336,4.3329.6275,8.0938-3.5966,19.0873-41.453,36.9043-49.4408,40.467-.945-3.0143-3.3983-6.0762-9.3543-6.6224-19.4375-1.7827-63.6162,24.2531-74.1113,30.6357a6.374,6.374,0,0,0-1.1193-3.151c-1.11-1.5479-2.9692-2.4517-5.5267-2.6862-10.9078-1-34.4991,10.13-53.4552,19.0723-5.5705,2.6283-10.8325,5.1105-14.902,6.8555-19.9594,8.5586-41.4066,12.7893-52.9286,15.0621-1.25.2465-2.3814.47-3.3785.6726-10.178,2.0685-40.7663,14.8856-42.0637,15.43l-12.1311,5.0938Z"/>
            <path class="cls-17" d="M1471.8075,585.7683c-.04-.0159-.0811-.0352-.1215-.0507.0351.0037.07.0106.1048.0143Z"/>
            <path class="cls-9" d="M1445.8079,565.6861c.8069-8.4658-6.9633-10.1147-10.1943-10.437,6.8872-.8086,15.8734.1013,19.8282,8.9643,6.8449,15.34-6.1135,26.7939-6.1135,26.7939s.3375-.1827.9475-.48a50.6812,50.6812,0,0,1-20.3953,7.805c-15.896,2.43-18.0253-2.6212-18.0253-2.6212C1430.6413,592.84,1444.7927,576.3385,1445.8079,565.6861Z"/>
            <path class="cls-9" d="M1414.0452,659.8967s31.8289-5.25,55.3082-34.954a70.8315,70.8315,0,0,0,7.4039-11.2217,101.0442,101.0442,0,0,1-3.7791,13.1908c-7.3233,20.6738-25.4754,43.0605-34.0338,52.8985a10.7335,10.7335,0,0,0-2.5522,9.118c.0707.33.1316.6849.18,1.0649,0,0,3.93,16.0413-34.2521,43.1287-32.4381,23.0125-54.701,32.8246-60.6684,35.2574-.5441.2062-1.0831.4166-1.612.6345,0,0,43.2872-18.3947,70.8991-54.1074S1425.2345,662.0267,1414.0452,659.8967Z"/>
            <path class="cls-9" d="M1281.9386,648.9832c1.0622-11.1461,8.7943-30.42,22.6135-46.7821-3.1364,4.9416-10.1667,17.0361-6.3513,21.83,6.9153,8.6882,29.0782-14.3663,54.5383-10.0653,20.0873,3.3935,24.3845,31.1805,24.4025,39.8735a30.3382,30.3382,0,0,0-3.275-13.1473c-10.9515-21.65-50.6385-10.3094-63.462,4.7086S1279.9329,670.0285,1281.9386,648.9832Z"/>
            <path class="cls-9" d="M1201.23,730.0654c1.1236-1.0259,2.2271-1.9819,3.3273-2.9265-5.56,5.1882-16.0158,16.3516-20.3655,32.2864-5.1051,18.7029.3447,22.4983,20.5011,17.7328,16.0861-3.8032,28.9324,9.6287,4.0932,43.2875a24.5931,24.5931,0,0,0,4.1108-9.2091c4.3217-22.9356-24.4978-6.38-38.6678-3.3062C1156.2347,811.8331,1156.7767,770.6571,1201.23,730.0654Z"/>
            <path class="cls-9" d="M1461.9735,789.7056c6.2423,11.7015-13.0509,49.1553-80.31,80.4789,0,0-1.85,16.9249-37.5519,25.4547-29.3527,7.0132-112.8594,18.3239-141.6314,22.125-3.2469.4289-4.1429-3.8359-1.3391-6.34l2.8675-2.5611S1129.47,918.9774,1109.961,921.96s-26.1151-2.4087-23.4635-12.7993a590.9346,590.9346,0,0,0-86.7836,6.6094c-35.7349,5.4626-50.8909,6.1335-72.0192,8.9321,3.2658-.8381,37.54-9.5626,68.0373-14.4681,32.0575-5.1566,66.9555-10.2353,86.5383-13.9969s18.5138-.0138,17.494,3.2146,8.9406,5.8021,27.9067-1.45a319.1546,319.1546,0,0,0,37.5318-17.7708s6.9169,24.5458,45.8665,16.8,52.8514-39.0591,52.8514-39.0591-16.97-1.2464-24.4268-12.6521c0,0,21.73,3.5912,42.4137-6.74s30.3784-34.8556,30.3784-34.8556,6.9777,1.4935,19.0944-1.1266c0,0-3.5272,4.6356-16.614,9.9647,0,0-3.8468,25.4229-35.3392,44.5749,0,0,7.1892,21.688,39.3389,18.0535s52.041-33.0465,52.041-33.0465,9.2917,9.5891,32.6247-1.1465,22.5406-29.8172,22.5406-29.8172,12.74-1.6915,19.0179-17.757C1444.99,793.4235,1450.6047,796.5742,1461.9735,789.7056Z"/>
          </g>
        </g>
      </g>
    </g>
  </g>
</svg>